<?xml version="1.0" encoding="UTF-8"?>
<svg version="1.1" xmlns="http://www.w3.org/2000/svg" width="120" height="120">
<path d="M0 0 C1.07853745 0.00607269 1.07853745 0.00607269 2.17886353 0.01226807 C2.9367215 0.00876343 3.69457947 0.00525879 4.47540283 0.00164795 C6.98732591 -0.00717417 9.49896869 -0.00131861 12.01089478 0.00543213 C13.75202488 0.00408561 15.49315463 0.0021452 17.23428345 -0.00036621 C20.88609389 -0.00331812 24.53780661 0.0009823 28.18960571 0.01031494 C32.87746459 0.02170954 37.56509448 0.01515042 42.25294495 0.00317001 C45.84908788 -0.00404679 49.44517625 -0.00176149 53.0413208 0.0034256 C54.77014187 0.00476259 56.49896786 0.00311264 58.2277832 -0.00153351 C60.64129818 -0.00659584 63.05443901 0.00110714 65.46792603 0.01226807 C66.18695099 0.0082196 66.90597595 0.00417114 67.64678955 0 C72.59486581 0.04252817 72.59486581 0.04252817 74.82339478 2.27105713 C75.07736206 4.51019287 75.07736206 4.51019287 75.08218384 7.331604 C75.08848816 8.38609741 75.09479248 9.44059082 75.10128784 10.52703857 C75.09723938 11.6697522 75.09319092 12.81246582 75.08901978 13.98980713 C75.09093323 15.15862427 75.09284668 16.32744141 75.09481812 17.53167725 C75.09618104 20.00649226 75.09247719 22.48131439 75.08413696 24.95611572 C75.07343923 28.75526918 75.08402896 32.55394972 75.09683228 36.35308838 C75.0955107 38.75282901 75.09294835 41.15256935 75.08901978 43.55230713 C75.09306824 44.69502075 75.0971167 45.83773437 75.10128784 47.01507568 C75.09183136 48.5968158 75.09183136 48.5968158 75.08218384 50.21051025 C75.08059265 51.14157593 75.07900146 52.0726416 75.07736206 53.03192139 C74.82339478 55.27105713 74.82339478 55.27105713 72.82339478 57.27105713 C70.38645065 57.48816345 68.0595417 57.58241282 65.61978149 57.58990479 C64.50743637 57.60497322 64.50743637 57.60497322 63.37261963 57.62034607 C60.91611523 57.65129108 58.45972035 57.66824433 56.00308228 57.68511963 C54.30199229 57.70382221 52.60091166 57.72339493 50.89984131 57.74380493 C46.41840118 57.79522845 41.93693094 57.83479929 37.45535278 57.87194824 C32.88394663 57.91192401 28.31266683 57.96304558 23.74136353 58.01324463 C14.76879591 58.11012482 5.79615711 58.19449073 -3.17660522 58.27105713 C2.48164123 63.37932346 6.51480265 65.15532712 14.10073853 65.04058838 C14.95269302 65.05192307 15.80464752 65.06325775 16.68241882 65.07493591 C19.37588039 65.1054368 22.06732118 65.09585875 24.76089478 65.08355713 C27.47881061 65.09772169 30.19652301 65.1200394 32.91435242 65.14573669 C34.59923414 65.15879515 36.28420469 65.16351535 37.96913147 65.15919495 C43.7159408 65.16360316 43.7159408 65.16360316 44.82339478 66.27105713 C44.95620728 68.08355713 44.95620728 68.08355713 44.94839478 70.27105713 C44.95226196 71.35386963 44.95226196 71.35386963 44.95620728 72.45855713 C44.82339478 74.27105713 44.82339478 74.27105713 43.82339478 75.27105713 C42.34686814 75.3698651 40.86572242 75.40184958 39.38589478 75.40386963 C38.04398071 75.40580322 38.04398071 75.40580322 36.67495728 75.40777588 C35.26343384 75.4019751 35.26343384 75.4019751 33.82339478 75.39605713 C32.41187134 75.40185791 32.41187134 75.40185791 30.97183228 75.40777588 C30.0772229 75.40648682 29.18261353 75.40519775 28.26089478 75.40386963 C27.43460571 75.4027417 26.60831665 75.40161377 25.75698853 75.40045166 C23.82339478 75.27105713 23.82339478 75.27105713 22.82339478 74.27105713 C22.7824654 71.9380828 22.78097754 69.60400488 22.82339478 67.27105713 C22.23437378 67.30771484 21.64535278 67.34437256 21.03848267 67.38214111 C1.79714854 68.4244036 1.79714854 68.4244036 -3.98910522 63.77105713 C-5.94613647 61.80230713 -5.94613647 61.80230713 -7.17660522 60.27105713 C-6.99098022 59.63168213 -6.80535522 58.99230713 -6.61410522 58.33355713 C-6.39754272 57.31261963 -6.39754272 57.31261963 -6.17660522 56.27105713 C-6.50660522 55.94105713 -6.83660522 55.61105713 -7.17660522 55.27105713 C-7.2805046 53.62461425 -7.31513105 51.97373981 -7.3218689 50.32403564 C-7.32824875 49.26946671 -7.3346286 48.21489777 -7.34120178 47.12837219 C-7.34231461 45.98049728 -7.34342743 44.83262238 -7.34457397 43.64996338 C-7.34790237 42.47973129 -7.35123077 41.30949921 -7.35466003 40.10380554 C-7.35973431 37.62302037 -7.36206821 35.14222834 -7.36190796 32.66143799 C-7.3640938 28.85346294 -7.38224274 25.0457777 -7.4012146 21.237854 C-7.40414846 18.83355813 -7.40613331 16.42926086 -7.40707397 14.02496338 C-7.41425949 12.8791127 -7.42144501 11.73326202 -7.42884827 10.5526886 C-7.42577164 9.4949675 -7.42269501 8.4372464 -7.41952515 7.34747314 C-7.42095016 6.41339127 -7.42237518 5.47930939 -7.42384338 4.516922 C-6.90721681 -0.17601652 -4.05602569 0.03486109 0 0 Z M-4.08473206 3.50537109 C-5.48369801 5.76766191 -5.55705138 7.22267779 -5.56478882 9.878479 C-5.5742453 10.80954468 -5.58370178 11.74061035 -5.59344482 12.69989014 C-5.58737213 13.70306274 -5.58129944 14.70623535 -5.57504272 15.73980713 C-5.5779129 16.77166138 -5.58078308 17.80351563 -5.58374023 18.86663818 C-5.58578223 21.04881336 -5.58024293 23.23100678 -5.56771851 25.41314697 C-5.55166728 28.75812613 -5.56756314 32.10189691 -5.58676147 35.44683838 C-5.58477907 37.56533064 -5.58093545 39.68382214 -5.57504272 41.80230713 C-5.58111542 42.80547974 -5.58718811 43.80865234 -5.59344482 44.84222412 C-5.58398834 45.77328979 -5.57453186 46.70435547 -5.56478882 47.66363525 C-5.56240204 48.48287476 -5.56001526 49.30211426 -5.55755615 50.1461792 C-5.30509132 52.30560061 -5.30509132 52.30560061 -4.08374023 54.03475952 C-1.17804804 55.91837043 1.28828633 55.65274659 4.72573853 55.65924072 C5.77255295 55.66712616 5.77255295 55.66712616 6.84051514 55.6751709 C9.14753598 55.68837559 11.45386691 55.67963168 13.76089478 55.66949463 C15.36367933 55.67151524 16.96646298 55.67442658 18.56924438 55.67819214 C21.92846428 55.68261611 25.28744488 55.67618226 28.64663696 55.66217041 C32.95446317 55.64507828 37.26172867 55.65491911 41.5695343 55.6728878 C44.87922395 55.68372379 48.18878048 55.6802802 51.49847412 55.67250443 C53.08691474 55.67050189 54.6753674 55.67296356 56.26379395 55.67994308 C58.48320573 55.68755476 60.70170712 55.67595858 62.92105103 55.65924072 C64.18441284 55.65685394 65.44777466 55.65446716 66.74942017 55.65200806 C69.78300331 55.5176465 69.78300331 55.5176465 71.73052979 53.94869995 C73.56070098 51.13922796 73.21328691 48.38125442 73.22183228 45.08355713 C73.22470245 44.38464355 73.22757263 43.68572998 73.23052979 42.96563721 C73.23256903 41.48963612 73.2270488 40.01360792 73.21450806 38.53765869 C73.19845057 36.27890575 73.21435948 34.02194195 73.23355103 31.76324463 C73.23156857 30.32834485 73.22772483 28.89344618 73.22183228 27.45855713 C73.21675659 25.49982666 73.21675659 25.49982666 73.21157837 23.50152588 C72.79703426 20.05168455 72.41929105 19.36704073 69.82339478 17.27105713 C69.53042603 14.79058838 69.53042603 14.79058838 69.63589478 12.08355713 C69.67650024 10.7319751 69.67650024 10.7319751 69.71792603 9.35308838 C69.75273071 8.66601807 69.7875354 7.97894775 69.82339478 7.27105713 C70.81339478 7.93105713 71.80339478 8.59105713 72.82339478 9.27105713 C72.48111906 6.30040203 72.48111906 6.30040203 71.82339478 3.27105713 C68.8968657 1.80779259 66.30254639 2.12755549 63.03457642 2.10992432 C61.98798103 2.10247696 61.98798103 2.10247696 60.92024231 2.09487915 C58.60800192 2.08025255 56.29583011 2.07345526 53.98355103 2.06793213 C52.37933856 2.06218174 50.77512611 2.05642399 49.1709137 2.05065918 C45.80580321 2.04014822 42.44071663 2.03430597 39.07559204 2.03082275 C34.75994597 2.02533327 30.44461466 2.00129621 26.12906742 1.9728508 C22.81512014 1.95424506 19.50124906 1.94901996 16.18725395 1.94748688 C14.59600539 1.94445588 13.00475831 1.9364123 11.41356087 1.9233017 C9.18933125 1.90628133 6.96587565 1.90811096 4.74160767 1.91461182 C3.47522964 1.91096619 2.20885162 1.90732056 0.90409851 1.90356445 C-2.11852597 2.03506746 -2.11852597 2.03506746 -4.08473206 3.50537109 Z M25.82339478 67.27105713 C25.4412071 68.9272037 25.10944376 70.59562737 24.82339478 72.27105713 C26.01192333 73.68880551 26.01192333 73.68880551 29.42105103 73.36871338 C30.90936345 73.36203933 32.3976591 73.35007896 33.88589478 73.33355713 C35.0238147 73.32678955 35.0238147 73.32678955 36.1847229 73.31988525 C38.06431349 73.30806393 39.94386376 73.29012791 41.82339478 73.27105713 C42.20558245 71.61491056 42.53734579 69.94648689 42.82339478 68.27105713 C41.63486622 66.85330874 41.63486622 66.85330874 38.22573853 67.17340088 C36.7374261 67.18007493 35.24913045 67.1920353 33.76089478 67.20855713 C32.62297485 67.21532471 32.62297485 67.21532471 31.46206665 67.222229 C29.58247606 67.23405033 27.70292579 67.25198635 25.82339478 67.27105713 Z " fill="#000000" transform="translate(26.176605224609375,33.72894287109375)"/>
<path d="M0 0 C4.31633181 3.18586395 7.91120739 6.79612218 9.625 11.9375 C10.57416973 24.58701198 10.57416973 24.58701198 6.625 29.9375 C1.6016523 34.9608477 -1.93953616 37.07809677 -9.1875 37.1875 C-15.00495029 37.11049404 -18.78081164 36.53168836 -23.02734375 32.28515625 C-28.10018167 26.63938605 -28.68170367 22.40870416 -28.58203125 14.87890625 C-28.18423016 9.22712847 -25.94917386 6.28572704 -21.875 2.625 C-15.80117425 -2.44984125 -7.33000764 -2.307595 0 0 Z M-23.8125 9.0625 C-26.3128279 14.10645152 -26.42696073 19.66335003 -24.71484375 24.9921875 C-22.82987667 28.79476178 -20.23226178 31.39237667 -16.4296875 33.27734375 C-11.10085003 34.98946073 -5.54395152 34.8753279 -0.5 32.375 C3.86563955 28.96980115 6.15875906 25.92720993 7.00390625 20.5078125 C7.28817485 14.47398215 6.34570953 10.70764043 2.625 5.9375 C-2.14514043 2.21679047 -5.91148215 1.27432515 -11.9453125 1.55859375 C-17.36470993 2.40374094 -20.40730115 4.69686045 -23.8125 9.0625 Z " fill="#000000" transform="translate(69.375,44.0625)"/>
<path d="M0 0 C3.43403788 2.00011167 6.21175747 4.42351494 8 8 C8.62133059 12.30212445 8.97036679 16.33395487 6.73046875 20.1796875 C4.10454037 23.25924341 2.01332773 25.70922689 -2.13671875 26.30859375 C-7.09743834 26.55928861 -10.18750897 26.42919359 -14.0625 23.125 C-17.28979449 19.98123549 -18.20989561 17.81630798 -18.4375 13.3125 C-18.41544127 8.23899195 -16.98873334 5.85075283 -13.5078125 2.27734375 C-9.61928155 -1.01682625 -4.83719165 -0.7869461 0 0 Z M-12 5 C-12.5775 5.4125 -13.155 5.825 -13.75 6.25 C-15.77297816 9.08216942 -15.88180145 11.57224219 -16 15 C-14.86250805 17.78508316 -14.86250805 17.78508316 -13 20 C-12.38125 20.86625 -12.38125 20.86625 -11.75 21.75 C-8.91783058 23.77297816 -6.42775781 23.88180145 -3 24 C-0.21491684 22.86250805 -0.21491684 22.86250805 2 21 C2.5775 20.5875 3.155 20.175 3.75 19.75 C5.77297816 16.91783058 5.88180145 14.42775781 6 11 C4.86250805 8.21491684 4.86250805 8.21491684 3 6 C2.5875 5.4225 2.175 4.845 1.75 4.25 C-3.03003066 0.83569238 -7.60053799 1.57819621 -12 5 Z " fill="#000000" transform="translate(65,49)"/>
<path d="M0 0 C1.98 0 3.96 0 6 0 C6 1.98 6 3.96 6 6 C4.02 6 2.04 6 0 6 C0 4.02 0 2.04 0 0 Z " fill="#000000" transform="translate(32,42)"/>
</svg>
