<?xml version="1.0" encoding="UTF-8"?>
<svg version="1.1" xmlns="http://www.w3.org/2000/svg" width="120" height="120">
<path d="M0 0 C23.76 0 47.52 0 72 0 C72 3.3 72 6.6 72 10 C60.45 10 48.9 10 37 10 C37 23.53 37 37.06 37 51 C31.39 51 25.78 51 20 51 C20 37.47 20 23.94 20 10 C13.4 10 6.8 10 0 10 C0 6.7 0 3.4 0 0 Z M22 10 C22 22.87 22 35.74 22 49 C26.29 49 30.58 49 35 49 C35 36.13 35 23.26 35 10 C30.71 10 26.42 10 22 10 Z " fill="#000000" transform="translate(24,35)"/>
<path d="M0 0 C1.11433914 0.00303635 1.11433914 0.00303635 2.25119019 0.00613403 C3.41942825 0.00350555 3.41942825 0.00350555 4.61126709 0.00082397 C7.19829505 -0.00359493 9.78525522 -0.00065643 12.37228394 0.00271606 C14.16207899 0.00204304 15.95187396 0.00107302 17.7416687 -0.00018311 C21.49778105 -0.00166013 25.25386966 0.00049462 29.00997925 0.00515747 C33.83578887 0.01085476 38.66154288 0.00757578 43.48735046 0.00158501 C47.18466616 -0.00202048 50.88196858 -0.00088208 54.57928467 0.0017128 C56.35917162 0.0023821 58.13905975 0.00155353 59.91894531 -0.00076675 C62.40212216 -0.00329309 64.88520768 0.00054702 67.36837769 0.00613403 C68.11127045 0.0041098 68.85416321 0.00208557 69.61956787 0 C74.69552132 0.02126595 74.69552132 0.02126595 75.80978394 1.13552856 C75.90913542 3.15503065 75.93777901 5.17803771 75.93917847 7.19998169 C75.94233063 8.49802734 75.94548279 9.796073 75.94873047 11.13345337 C75.94694069 12.56122878 75.94488974 13.98900388 75.94259644 15.41677856 C75.94326951 16.87026994 75.94423957 18.32376121 75.94549561 19.7772522 C75.9469724 22.82718983 75.94481864 25.87709823 75.94015503 28.92703247 C75.93445774 32.84483416 75.93773685 36.76256735 75.94372749 40.68036652 C75.94733362 43.6828361 75.94619428 46.68528933 75.9435997 49.6877594 C75.94293057 51.13271594 75.94375836 52.57767395 75.94607925 54.02262878 C75.94860659 56.0387774 75.94407445 58.05493119 75.93917847 60.07107544 C75.93838287 61.22055664 75.93758728 62.37003784 75.93676758 63.55435181 C75.80978394 66.13552856 75.80978394 66.13552856 74.80978394 67.13552856 C72.32024697 67.23586723 69.8584344 67.27170799 67.36837769 67.2649231 C66.58955231 67.26667542 65.81072693 67.26842773 65.00830078 67.27023315 C62.42127282 67.27465206 59.83431265 67.27171355 57.24728394 67.26834106 C55.45748888 67.26901409 53.66769391 67.26998411 51.87789917 67.27124023 C48.12178683 67.27271726 44.36569822 67.27056251 40.60958862 67.26589966 C35.783779 67.26020237 30.95802499 67.26348135 26.13221741 67.26947212 C22.43490171 67.27307761 18.73759929 67.27193921 15.0402832 67.26934433 C13.26039626 67.26867503 11.48050812 67.2695036 9.70062256 67.27182388 C7.21744571 67.27435021 4.73436019 67.27051011 2.25119019 67.2649231 C1.13685104 67.26795944 1.13685104 67.26795944 0 67.27105713 C-5.07595345 67.24979118 -5.07595345 67.24979118 -6.19021606 66.13552856 C-6.28956754 64.11602648 -6.31821114 62.09301942 -6.3196106 60.07107544 C-6.32276276 58.77302979 -6.32591492 57.47498413 -6.3291626 56.13760376 C-6.32737282 54.70982835 -6.32532187 53.28205325 -6.32302856 51.85427856 C-6.32370164 50.40078719 -6.3246717 48.94729592 -6.32592773 47.49380493 C-6.32740452 44.4438673 -6.32525077 41.3939589 -6.32058716 38.34402466 C-6.31488987 34.42622297 -6.31816898 30.50848978 -6.32415962 26.59069061 C-6.32776575 23.58822103 -6.32662641 20.5857678 -6.32403183 17.58329773 C-6.3233627 16.13834119 -6.32419049 14.69338318 -6.32651138 13.24842834 C-6.32903871 11.23227973 -6.32450658 9.21612594 -6.3196106 7.19998169 C-6.318815 6.05050049 -6.31801941 4.90101929 -6.31719971 3.71670532 C-6.09192915 -0.86233421 -4.07606097 0.01707685 0 0 Z M-4.19021606 4.13552856 C-4.49721834 6.71043529 -4.49721834 6.71043529 -4.44900513 9.74685669 C-4.45530945 10.92147461 -4.46161377 12.09609253 -4.46810913 13.30630493 C-4.46406067 14.58026123 -4.46001221 15.85421753 -4.45584106 17.16677856 C-4.45775452 18.46877197 -4.45966797 19.77076538 -4.4616394 21.11221313 C-4.46458997 23.86954485 -4.4602953 26.62674705 -4.45095825 29.38406372 C-4.4395636 32.9217993 -4.44612345 36.45923143 -4.45810318 39.99695587 C-4.46706 43.3660879 -4.46079246 46.7351379 -4.45584106 50.10427856 C-4.45988953 51.37823486 -4.46393799 52.65219116 -4.46810913 53.9647522 C-4.46180481 55.13937012 -4.45550049 56.31398804 -4.44900513 57.52420044 C-4.44741394 58.56185547 -4.44582275 59.5995105 -4.44418335 60.66860962 C-4.43420628 63.31218889 -4.43420628 63.31218889 -2.19021606 65.13552856 C0.99469063 65.44377515 0.99469063 65.44377515 4.79806519 65.39431763 C5.51690887 65.39782227 6.23575256 65.4013269 6.97637939 65.40493774 C9.35844509 65.41375821 11.74021509 65.40790492 14.12228394 65.40115356 C15.77373309 65.40250013 17.42518185 65.40444058 19.07662964 65.4069519 C22.54012826 65.40990359 26.00352383 65.40560413 29.4670105 65.39627075 C33.91273705 65.38487615 38.35822213 65.39143539 42.80393982 65.40341568 C46.21479114 65.41063311 49.62558496 65.4083469 53.03643799 65.4031601 C54.6759443 65.40182327 56.31545578 65.40347246 57.95495605 65.4081192 C60.24394619 65.41318257 62.53254201 65.40547719 64.82150269 65.39431763 C66.1256311 65.39272644 67.42975952 65.39113525 68.77340698 65.38949585 C71.92045812 65.45532674 71.92045812 65.45532674 73.80978394 63.13552856 C74.11678621 60.56062184 74.11678621 60.56062184 74.068573 57.52420044 C74.07802948 55.76227356 74.07802948 55.76227356 74.087677 53.9647522 C74.08362854 52.6907959 74.07958008 51.4168396 74.07540894 50.10427856 C74.07732239 48.80228516 74.07923584 47.50029175 74.08120728 46.15884399 C74.08415785 43.40151228 74.07986317 40.64431008 74.07052612 37.88699341 C74.05913147 34.34925783 74.06569132 30.8118257 74.07767105 27.27410126 C74.08662787 23.90496923 74.08036033 20.53591923 74.07540894 17.16677856 C74.0794574 15.89282227 74.08350586 14.61886597 74.087677 13.30630493 C74.08137268 12.13168701 74.07506836 10.95706909 74.068573 9.74685669 C74.06698181 8.70920166 74.06539063 7.67154663 74.06375122 6.60244751 C74.05377415 3.95886824 74.05377415 3.95886824 71.80978394 2.13552856 C68.62487724 1.82728198 68.62487724 1.82728198 64.82150269 1.8767395 C64.102659 1.87323486 63.38381531 1.86973022 62.64318848 1.86611938 C60.26112278 1.85729892 57.87935278 1.86315221 55.49728394 1.86990356 C53.84583479 1.868557 52.19438602 1.86661654 50.54293823 1.86410522 C47.07943961 1.86115354 43.61604404 1.865453 40.15255737 1.87478638 C35.70683082 1.88618098 31.26134574 1.87962174 26.81562805 1.86764145 C23.40477673 1.86042402 19.99398291 1.86271023 16.58312988 1.86789703 C14.94362357 1.86923386 13.30411209 1.86758467 11.66461182 1.86293793 C9.37562168 1.85787456 7.08702586 1.86557994 4.79806519 1.8767395 C3.49393677 1.87833069 2.18980835 1.87992188 0.84616089 1.88156128 C-2.30089025 1.81573039 -2.30089025 1.81573039 -4.19021606 4.13552856 Z " fill="#000000" transform="translate(25.190216064453125,28.864471435546875)"/>
<path d="M0 0 C1.32 0 2.64 0 4 0 C4 0.99 4 1.98 4 3 C5.98 3 7.96 3 10 3 C10 15.21 10 27.42 10 40 C4.39 40 -1.22 40 -7 40 C-7 27.79 -7 15.58 -7 3 C-4.69 3 -2.38 3 0 3 C0 2.01 0 1.02 0 0 Z M-5 5 C-5 15.89 -5 26.78 -5 38 C-0.71 38 3.58 38 8 38 C8 27.11 8 16.22 8 5 C3.71 5 -0.58 5 -5 5 Z " fill="#000000" transform="translate(31,46)"/>
<path d="M0 0 C1.32 0 2.64 0 4 0 C4 0.99 4 1.98 4 3 C5.98 3 7.96 3 10 3 C10 13.56 10 24.12 10 35 C4.39 35 -1.22 35 -7 35 C-7 24.44 -7 13.88 -7 3 C-4.69 3 -2.38 3 0 3 C0 2.01 0 1.02 0 0 Z M-5 5 C-5 14.24 -5 23.48 -5 33 C-0.71 33 3.58 33 8 33 C8 23.76 8 14.52 8 5 C3.71 5 -0.58 5 -5 5 Z " fill="#000000" transform="translate(71,51)"/>
</svg>
