<?xml version="1.0" encoding="UTF-8"?>
<svg version="1.1" xmlns="http://www.w3.org/2000/svg" width="120" height="120">
<path d="M0 0 C0.66 0 1.32 0 2 0 C2 2.97 2 5.94 2 9 C3.670625 8.87625 3.670625 8.87625 5.375 8.75 C14.64368939 8.83159058 21.28157062 13.39625433 27.80078125 19.62890625 C34.57234762 26.92968917 37.34184925 34.08637175 37 44 C39.97 44 42.94 44 46 44 C46 44.66 46 45.32 46 46 C43.03 46 40.06 46 37 46 C37.0825 47.11375 37.165 48.2275 37.25 49.375 C37.16840942 58.64368939 32.60374567 65.28157062 26.37109375 71.80078125 C19.07031083 78.57234762 11.91362825 81.34184925 2 81 C2 83.97 2 86.94 2 90 C1.34 90 0.68 90 0 90 C0 87.03 0 84.06 0 81 C-1.11375 81.0825 -2.2275 81.165 -3.375 81.25 C-12.64368939 81.16840942 -19.28157062 76.60374567 -25.80078125 70.37109375 C-32.57234762 63.07031083 -35.34184925 55.91362825 -35 46 C-37.97 46 -40.94 46 -44 46 C-44 45.34 -44 44.68 -44 44 C-41.03 44 -38.06 44 -35 44 C-35.0825 42.88625 -35.165 41.7725 -35.25 40.625 C-35.16840942 31.35631061 -30.60374567 24.71842938 -24.37109375 18.19921875 C-17.07031083 11.42765238 -9.91362825 8.65815075 0 9 C0 6.03 0 3.06 0 0 Z M-16 16 C-16.69480469 16.42410156 -17.38960937 16.84820313 -18.10546875 17.28515625 C-25.21442233 22.07336326 -29.78456858 28.73241275 -32 37 C-32.78810998 45.84332709 -32.96864689 54.30859614 -28 62 C-27.32904297 63.05960938 -27.32904297 63.05960938 -26.64453125 64.140625 C-21.87251187 71.04917852 -15.40910906 76.3335607 -7 78 C1.897476 78.75999274 10.24398356 79.01038662 18 74 C18.70640625 73.55269531 19.4128125 73.10539062 20.140625 72.64453125 C27.04917852 67.87251187 32.3335607 61.40910906 34 53 C34.76086271 44.09233901 34.99866177 35.77050537 30 28 C29.36384766 26.95779297 29.36384766 26.95779297 28.71484375 25.89453125 C23.92663674 18.78557767 17.26758725 14.21543142 9 12 C0.14665298 11.21099705 -8.29424504 11.0429913 -16 16 Z " fill="#000000" transform="translate(59,15)"/>
<path d="M0 0 C1.12855637 0.71277244 2.23681107 1.45969793 3.3125 2.25 C4.199375 2.8275 5.08625 3.405 6 4 C11.46077863 9.31319002 14.40300093 15.16017294 14.60449219 22.79760742 C14.67130625 29.76933625 14.56930014 35.45602202 10.3125 41.25 C9.735 42.136875 9.1575 43.02375 8.5625 43.9375 C3.24930998 49.39827863 -2.59767294 52.34050093 -10.23510742 52.54199219 C-17.20683625 52.60880625 -22.89352202 52.50680014 -28.6875 48.25 C-30.0178125 47.38375 -30.0178125 47.38375 -31.375 46.5 C-36.83577863 41.18680998 -39.77800093 35.33982706 -39.97949219 27.70239258 C-40.04630625 20.73066375 -39.94430014 15.04397798 -35.6875 9.25 C-35.11 8.363125 -34.5325 7.47625 -33.9375 6.5625 C-25.62494489 -1.98095942 -11.06158618 -5.42443168 0 0 Z M-31.5625 9.1875 C-36.87091766 16.83786663 -37.78129999 23.04556989 -36.6875 32.25 C-34.22023645 39.63070293 -29.54319563 44.01718191 -22.921875 47.8515625 C-16.72067143 50.53275921 -9.35401901 50.47566493 -2.953125 48.3359375 C4.06374567 44.68622289 8.18075459 39.49325474 11.3125 32.25 C12.37998301 24.66197494 12.1498043 17.66131702 7.87109375 11.15234375 C3.25843861 5.52236117 -1.52236258 1.72788412 -8.921875 0.87890625 C-18.38095102 0.70023481 -25.09619514 1.95820931 -31.5625 9.1875 Z " fill="#000000" transform="translate(72.6875,34.75)"/>
<path d="M0 0 C4.8404001 2.60960701 8.06650639 6.09014417 9.796875 11.28125 C10.46163179 18.73524418 10.44121145 24.25616487 5.796875 30.28125 C0.39692227 35.28608423 -4.05234248 35.63143872 -11.1875 35.5625 C-16.73027207 35.04555753 -19.78938645 32.80659949 -23.578125 28.71875 C-27.13749657 23.37969265 -26.78151279 17.4828524 -26.203125 11.28125 C-24.60392 6.37933903 -21.45575292 3.11633528 -17.203125 0.28125 C-11.84906913 -1.50343529 -5.40672306 -1.76389547 0 0 Z M-21.578125 8.90625 C-23.78220393 13.48395239 -24.0002889 17.28677411 -23.203125 22.28125 C-20.87343569 27.11983548 -18.04171048 29.95156069 -13.203125 32.28125 C-8.20864911 33.0784139 -4.40582739 32.86032893 0.171875 30.65625 C3.75595213 27.41351355 6.39222741 24.81649104 7.1796875 19.8828125 C7.43571419 14.19902006 6.73314432 10.63186345 2.796875 6.28125 C-1.55373845 2.34498068 -5.12089506 1.64241081 -10.8046875 1.8984375 C-15.73836604 2.68589759 -18.33538855 5.32217287 -21.578125 8.90625 Z " fill="#000000" transform="translate(68.203125,42.71875)"/>
<path d="M0 0 C2.5 1.5 2.5 1.5 4 4 C4.791013 8.02098277 4.62153384 10.96411027 2.5 14.5 C-1.03588973 16.62153384 -3.97901723 16.791013 -8 16 C-10.5 14.5 -10.5 14.5 -12 12 C-12.791013 7.97901723 -12.62153384 5.03588973 -10.5 1.5 C-6.96411027 -0.62153384 -4.02098277 -0.791013 0 0 Z " fill="#000000" transform="translate(64,52)"/>
</svg>
