<?xml version="1.0" encoding="UTF-8"?>
<svg version="1.1" xmlns="http://www.w3.org/2000/svg" width="120" height="120">
<path d="M0 0 C5.91014508 4.25394319 10.26013133 9.34716957 12.03515625 16.46484375 C12.265625 20.04296875 12.265625 20.04296875 12.22265625 23.71484375 C12.21621094 24.936875 12.20976563 26.15890625 12.203125 27.41796875 C12.03515625 30.46484375 12.03515625 30.46484375 11.03515625 32.46484375 C17.96515625 32.46484375 24.89515625 32.46484375 32.03515625 32.46484375 C32.07640625 35.10484375 32.11765625 37.74484375 32.16015625 40.46484375 C32.17836426 41.27953125 32.19657227 42.09421875 32.21533203 42.93359375 C32.26354497 49.40345909 31.87302966 55.3053425 27.53515625 60.40234375 C23.48138528 63.7467048 20.71991658 63.80197283 15.58203125 63.75 C11.87449109 63.33489198 9.77654269 61.93209155 7.03515625 59.46484375 C4.30498525 55.04008385 4.34994808 50.51626213 5.03515625 45.46484375 C6.13200028 43.12808909 7.40566138 41.50171234 9.03515625 39.46484375 C9.03515625 38.80484375 9.03515625 38.14484375 9.03515625 37.46484375 C8.63425781 37.9959375 8.23335937 38.52703125 7.8203125 39.07421875 C2.61558143 45.54177572 -1.97584235 48.90986793 -10.3359375 49.83984375 C-19.00151205 50.13833502 -25.69604713 49.36372732 -32.21875 43.40625 C-39.13442631 36.06994221 -40.46502462 29.91797553 -40.265625 19.9375 C-39.51985175 11.32720885 -35.75963599 6.67407018 -29.37890625 1.09375 C-21.20769726 -4.41983277 -8.67190296 -4.5547752 0 0 Z M-32.65234375 8.5390625 C-37.05881162 15.31150318 -37.6950219 21.47344956 -36.96484375 29.46484375 C-34.91776416 36.27360849 -30.47306334 41.17010457 -24.40234375 44.77734375 C-18.49537222 47.51308671 -11.89704598 47.53301414 -5.6640625 45.83984375 C0.47660718 43.16895053 5.27858934 38.04824026 8.20703125 32.07421875 C10.14875239 25.95596534 10.09497535 18.87790993 7.34765625 13.02734375 C4.04263548 7.4457877 -0.68951596 2.50270793 -6.96484375 0.46484375 C-17.07980233 -0.97487663 -25.93985701 0.28829755 -32.65234375 8.5390625 Z M12.03515625 34.46484375 C12.36515625 35.78484375 12.69515625 37.10484375 13.03515625 38.46484375 C13.69902344 38.43003906 14.36289063 38.39523438 15.046875 38.359375 C23.87976181 38.08858577 23.87976181 38.08858577 28.03515625 41.46484375 C28.69515625 42.12484375 29.35515625 42.78484375 30.03515625 43.46484375 C30.03515625 40.49484375 30.03515625 37.52484375 30.03515625 34.46484375 C24.09515625 34.46484375 18.15515625 34.46484375 12.03515625 34.46484375 Z M12.03515625 41.46484375 C12.03515625 43.44484375 12.03515625 45.42484375 12.03515625 47.46484375 C13.68515625 47.46484375 15.33515625 47.46484375 17.03515625 47.46484375 C17.03515625 46.14484375 17.03515625 44.82484375 17.03515625 43.46484375 C17.69515625 43.46484375 18.35515625 43.46484375 19.03515625 43.46484375 C19.03515625 44.78484375 19.03515625 46.10484375 19.03515625 47.46484375 C22.00515625 47.46484375 24.97515625 47.46484375 28.03515625 47.46484375 C26.23102982 44.20023402 25.20120932 42.5755458 22.03515625 40.46484375 C18.61498068 40.06525888 15.16222584 39.90130895 12.03515625 41.46484375 Z M9.03515625 44.46484375 C7.43428998 47.66657629 7.53598536 50.99061434 8.03515625 54.46484375 C9.82879536 57.27487835 11.0539656 58.97424843 14.03515625 60.46484375 C18.53044739 60.83331024 20.97595126 61.02825066 24.97265625 58.90234375 C27.598725 55.79880796 27.80443948 53.46393435 28.03515625 49.46484375 C26.71515625 49.46484375 25.39515625 49.46484375 24.03515625 49.46484375 C24.03515625 50.12484375 24.03515625 50.78484375 24.03515625 51.46484375 C22.38515625 51.46484375 20.73515625 51.46484375 19.03515625 51.46484375 C19.03515625 53.44484375 19.03515625 55.42484375 19.03515625 57.46484375 C18.37515625 57.46484375 17.71515625 57.46484375 17.03515625 57.46484375 C17.03515625 55.48484375 17.03515625 53.50484375 17.03515625 51.46484375 C15.38515625 51.46484375 13.73515625 51.46484375 12.03515625 51.46484375 C12.03515625 50.80484375 12.03515625 50.14484375 12.03515625 49.46484375 C11.37515625 49.46484375 10.71515625 49.46484375 10.03515625 49.46484375 C10.03515625 47.81484375 10.03515625 46.16484375 10.03515625 44.46484375 C9.70515625 44.46484375 9.37515625 44.46484375 9.03515625 44.46484375 Z " fill="#000000" transform="translate(58.96484375,21.53515625)"/>
<path d="M0 0 C3.90285767 1.58667578 6.33520982 4.13350481 9.25 7.125 C10.14203125 8.03507812 11.0340625 8.94515625 11.953125 9.8828125 C12.62859375 10.58148438 13.3040625 11.28015625 14 12 C17.90285767 10.41332422 20.33520982 7.86649519 23.25 4.875 C24.14203125 3.96492188 25.0340625 3.05484375 25.953125 2.1171875 C26.62859375 1.41851563 27.3040625 0.71984375 28 0 C28.99 0.33 29.98 0.66 31 1 C29.41332422 4.90285767 26.86649519 7.33520982 23.875 10.25 C22.96492188 11.14203125 22.05484375 12.0340625 21.1171875 12.953125 C20.41851562 13.62859375 19.71984375 14.3040625 19 15 C20.58667578 18.90285767 23.13350481 21.33520982 26.125 24.25 C27.03507812 25.14203125 27.94515625 26.0340625 28.8828125 26.953125 C29.58148438 27.62859375 30.28015625 28.3040625 31 29 C30.67 29.99 30.34 30.98 30 32 C26.09714233 30.41332422 23.66479018 27.86649519 20.75 24.875 C19.85796875 23.96492188 18.9659375 23.05484375 18.046875 22.1171875 C17.37140625 21.41851562 16.6959375 20.71984375 16 20 C12.09714233 21.58667578 9.66479018 24.13350481 6.75 27.125 C5.85796875 28.03507812 4.9659375 28.94515625 4.046875 29.8828125 C3.37140625 30.58148438 2.6959375 31.28015625 2 32 C1.01 31.67 0.02 31.34 -1 31 C0.58667578 27.09714233 3.13350481 24.66479018 6.125 21.75 C7.03507812 20.85796875 7.94515625 19.9659375 8.8828125 19.046875 C9.58148438 18.37140625 10.28015625 17.6959375 11 17 C9.41332422 13.09714233 6.86649519 10.66479018 3.875 7.75 C2.96492188 6.85796875 2.05484375 5.9659375 1.1171875 5.046875 C0.41851563 4.37140625 -0.28015625 3.6959375 -1 3 C-0.67 2.01 -0.34 1.02 0 0 Z " fill="#000000" transform="translate(30,29)"/>
<path d="M0 0 C3.30111531 1.10037177 3.65501001 1.54505712 5.48046875 4.30859375 C5.92197266 4.97310547 6.36347656 5.63761719 6.81835938 6.32226562 C7.49608398 7.36930664 7.49608398 7.36930664 8.1875 8.4375 C8.65091797 9.13166016 9.11433594 9.82582031 9.59179688 10.54101562 C13 15.72610226 13 15.72610226 13 18 C5.08 18 -2.84 18 -11 18 C-9.21569985 13.53924962 -7.1275774 10.04540926 -4.375 6.1875 C-3.95476562 5.59001953 -3.53453125 4.99253906 -3.1015625 4.37695312 C-2.07220272 2.91479435 -1.0367177 1.45695101 0 0 Z M0 6 C-1.00276773 7.47729175 -2.00214454 8.95688577 -3 10.4375 C-3.556875 11.26121094 -4.11375 12.08492187 -4.6875 12.93359375 C-6.08935876 14.73268729 -6.08935876 14.73268729 -6 16 C-1.38 16 3.24 16 8 16 C7.236875 14.535625 6.47375 13.07125 5.6875 11.5625 C5.25824219 10.73878906 4.82898438 9.91507813 4.38671875 9.06640625 C3.09979113 6.69352356 3.09979113 6.69352356 0 6 Z " fill="#000000" transform="translate(84,33)"/>
</svg>
