<svg width="24" height="24" viewBox="0 0 24 24" fill="none" xmlns="http://www.w3.org/2000/svg">
  <path d="M17.6915026,12.4744748 C17.1624245,12.0151496 16.3297185,11.8012357 15.4560244,11.8012357 C13.3459442,11.8012357 11.5505655,13.5895625 11.5505655,15.6799463 C11.5505655,17.7703301 13.3459442,19.5586569 15.4560244,19.5586569 C16.3297185,19.5586569 17.1624245,19.344743 17.6915026,18.8854179 L21.1272231,21.7504206 C21.5404922,22.118014 22.1769377,21.9990208 22.5452313,21.5838418 C22.9135249,21.1686629 22.8000566,20.5353915 22.3867875,20.1678881 L17.6915026,12.4744748 Z" fill="#FFFFFF"/>
  <path d="M12,2 C6.48,2 2,6.48 2,12 C2,13.54 2.32,15.01 2.88,16.34 L2,22 L7.66,21.12 C8.99,21.68 10.46,22 12,22 C17.52,22 22,17.52 22,12 C22,6.48 17.52,2 12,2 Z M12,20.15 C10.85,20.15 9.73,19.88 8.74,19.36 L8.5,19.24 L5.91,19.91 L6.59,17.34 L6.45,17.1 C5.9,16.08 5.6,14.93 5.6,13.72 C5.6,9.77 8.77,6.6 12.72,6.6 C16.67,6.6 19.84,9.77 19.84,13.72 C19.84,17.67 16.67,20.15 12,20.15 Z" fill="#FFFFFF"/>
</svg>