<?xml version="1.0" encoding="UTF-8"?>
<svg version="1.1" xmlns="http://www.w3.org/2000/svg" width="120" height="120">
<path d="M0 0 C20.46 0 40.92 0 62 0 C62 12.21 62 24.42 62 37 C41.54 37 21.08 37 0 37 C0 24.79 0 12.58 0 0 Z " fill="#060606" transform="translate(29,39)"/>
<path d="M0 0 C0.68128967 -0.00175232 1.36257935 -0.00350464 2.06451416 -0.00531006 C4.32688917 -0.00972789 6.58918663 -0.00679084 8.8515625 -0.00341797 C10.4171551 -0.00409103 11.9827476 -0.00506107 13.54833984 -0.00631714 C16.83366895 -0.00779402 20.11897092 -0.00563988 23.40429688 -0.00097656 C27.62476766 0.00472073 31.84517486 0.00144167 36.06564331 -0.00454903 C39.29972822 -0.00815491 42.53379795 -0.00701593 45.7678833 -0.00442123 C47.32448331 -0.00375204 48.88108468 -0.00458012 50.43768311 -0.00690079 C52.60953446 -0.00942777 54.78128146 -0.00558612 56.953125 0 C58.19143066 0.00079559 59.42973633 0.00159119 60.70556641 0.00241089 C63.4765625 0.12939453 63.4765625 0.12939453 64.4765625 1.12939453 C64.5756681 2.99575241 64.60455511 4.86587647 64.60595703 6.73486328 C64.60910919 7.93280518 64.61226135 9.13074707 64.61550903 10.36499023 C64.61247269 12.32118286 64.61247269 12.32118286 64.609375 14.31689453 C64.6100481 15.65828468 64.61101818 16.99967472 64.61227417 18.34106445 C64.61375086 21.15561074 64.61159754 23.97012535 64.60693359 26.78466797 C64.60123631 30.39980084 64.60451547 34.01485948 64.61050606 37.62998962 C64.61411247 40.40084395 64.61297272 43.17168055 64.61037827 45.9425354 C64.60938283 47.92629036 64.61242991 49.910046 64.61550903 51.89379883 C64.61078079 53.69071167 64.61078079 53.69071167 64.60595703 55.52392578 C64.60516144 56.58458252 64.60436584 57.64523926 64.60354614 58.73803711 C64.4765625 61.12939453 64.4765625 61.12939453 63.4765625 62.12939453 C61.3039357 62.22895731 59.12803144 62.25739172 56.953125 62.25878906 C56.27183533 62.26054138 55.59054565 62.2622937 54.88861084 62.26409912 C52.62623583 62.26851695 50.36393837 62.26557991 48.1015625 62.26220703 C46.5359699 62.26288009 44.9703774 62.26385013 43.40478516 62.2651062 C40.11945605 62.26658308 36.83415408 62.26442894 33.54882812 62.25976562 C29.32835734 62.25406834 25.10795014 62.25734739 20.88748169 62.26333809 C17.65339678 62.26694397 14.41932705 62.26580499 11.1852417 62.2632103 C9.62864169 62.2625411 8.07204032 62.26336919 6.51544189 62.26568985 C4.34359054 62.26821683 2.17184354 62.26437518 0 62.25878906 C-1.23830566 62.25799347 -2.47661133 62.25719788 -3.75244141 62.25637817 C-6.5234375 62.12939453 -6.5234375 62.12939453 -7.5234375 61.12939453 C-7.6225431 59.26303665 -7.65143011 57.39291259 -7.65283203 55.52392578 C-7.65598419 54.32598389 -7.65913635 53.12804199 -7.66238403 51.89379883 C-7.6603598 50.58967041 -7.65833557 49.28554199 -7.65625 47.94189453 C-7.6569231 46.60050438 -7.65789318 45.25911434 -7.65914917 43.91772461 C-7.66062586 41.10317832 -7.65847254 38.28866371 -7.65380859 35.47412109 C-7.64811131 31.85898822 -7.65139047 28.24392958 -7.65738106 24.62879944 C-7.66098747 21.85794511 -7.65984772 19.08710851 -7.65725327 16.31625366 C-7.65625783 14.3324987 -7.65930491 12.34874306 -7.66238403 10.36499023 C-7.65923187 9.16704834 -7.65607971 7.96910645 -7.65283203 6.73486328 C-7.65203644 5.67420654 -7.65124084 4.6135498 -7.65042114 3.52075195 C-7.39435652 -1.30145988 -4.1321314 0.00265483 0 0 Z M-5.5234375 4.12939453 C-5.82988161 6.50088001 -5.82988161 6.50088001 -5.78222656 9.28173828 C-5.78853088 10.35625244 -5.79483521 11.4307666 -5.80133057 12.5378418 C-5.7972821 13.7024292 -5.79323364 14.8670166 -5.7890625 16.06689453 C-5.79097595 17.25790771 -5.7928894 18.4489209 -5.79486084 19.67602539 C-5.7962238 22.19791881 -5.79251966 24.71981922 -5.78417969 27.24169922 C-5.77348203 31.11327802 -5.78407156 34.98439275 -5.796875 38.85595703 C-5.79555343 41.30127056 -5.79299108 43.7465838 -5.7890625 46.19189453 C-5.79311096 47.35648193 -5.79715942 48.52106934 -5.80133057 49.72094727 C-5.79502625 50.79546143 -5.78872192 51.86997559 -5.78222656 52.97705078 C-5.78063538 53.92588135 -5.77904419 54.87471191 -5.77740479 55.85229492 C-5.74120793 58.3278715 -5.74120793 58.3278715 -3.5234375 60.12939453 C-0.74515922 60.43687276 -0.74515922 60.43687276 2.546875 60.38818359 C3.82159668 60.39448792 5.09631836 60.40079224 6.40966797 60.4072876 C7.80696754 60.40370792 9.20426587 60.39960599 10.6015625 60.39501953 C12.02880927 60.39636624 13.45605559 60.39830682 14.88330078 60.40081787 C17.87602095 60.40376887 20.86862181 60.39947235 23.86132812 60.39013672 C27.70172623 60.37874209 31.54184482 60.3853017 35.38223267 60.39728165 C38.3298555 60.40450096 41.27741181 60.40221202 44.22503662 60.39702606 C45.64125603 60.39568976 47.05748144 60.39733662 48.47369385 60.40198517 C50.45121143 60.40705128 52.42875012 60.39796361 54.40625 60.38818359 C55.53272949 60.38659241 56.65920898 60.38500122 57.81982422 60.38336182 C60.63130086 60.39906268 60.63130086 60.39906268 62.4765625 58.12939453 C62.78300661 55.75790905 62.78300661 55.75790905 62.73535156 52.97705078 C62.74165588 51.90253662 62.74796021 50.82802246 62.75445557 49.72094727 C62.7504071 48.55635986 62.74635864 47.39177246 62.7421875 46.19189453 C62.74410095 45.00088135 62.7460144 43.80986816 62.74798584 42.58276367 C62.7493488 40.06087025 62.74564466 37.53896984 62.73730469 35.01708984 C62.72660703 31.14551105 62.73719656 27.27439631 62.75 23.40283203 C62.74867843 20.9575185 62.74611608 18.51220526 62.7421875 16.06689453 C62.74623596 14.90230713 62.75028442 13.73771973 62.75445557 12.5378418 C62.74815125 11.46332764 62.74184692 10.38881348 62.73535156 9.28173828 C62.73376038 8.33290771 62.73216919 7.38407715 62.73052979 6.40649414 C62.69433293 3.93091756 62.69433293 3.93091756 60.4765625 2.12939453 C57.69828422 1.8219163 57.69828422 1.8219163 54.40625 1.87060547 C53.13152832 1.86430115 51.85680664 1.85799683 50.54345703 1.85150146 C49.14615746 1.85508114 47.74885913 1.85918308 46.3515625 1.86376953 C44.92431573 1.86242282 43.49706941 1.86048224 42.06982422 1.85797119 C39.07710405 1.85502019 36.08450319 1.85931671 33.09179688 1.86865234 C29.25139877 1.88004698 25.41128018 1.87348736 21.57089233 1.86150742 C18.6232695 1.8542881 15.67571319 1.85657705 12.72808838 1.861763 C11.31186897 1.86309931 9.89564356 1.86145244 8.47943115 1.85680389 C6.50191357 1.85173778 4.52437488 1.86082546 2.546875 1.87060547 C1.42039551 1.87219666 0.29391602 1.87378784 -0.86669922 1.87542725 C-3.67817586 1.85972638 -3.67817586 1.85972638 -5.5234375 4.12939453 Z " fill="#030303" transform="translate(31.5234375,28.87060546875)"/>
<path d="M0 0 C0.66 0 1.32 0 2 0 C2.33 0.99 2.66 1.98 3 3 C2.67 3.33 2.34 3.66 2 4 C1.90125965 5.66666157 1.87201106 7.33749676 1.87060547 9.00708008 C1.86745331 10.07521439 1.86430115 11.14334869 1.86105347 12.24385071 C1.8630777 13.40732529 1.86510193 14.57079987 1.8671875 15.76953125 C1.86623077 16.95721603 1.86527405 18.14490082 1.86428833 19.36857605 C1.86360613 21.88805189 1.86546316 24.40752947 1.86962891 26.92700195 C1.87496248 30.78535931 1.86969252 34.64359949 1.86328125 38.50195312 C1.8639423 40.94531276 1.86522402 43.38867232 1.8671875 45.83203125 C1.86516327 46.98943314 1.86313904 48.14683502 1.86105347 49.33930969 C1.86578171 50.95569588 1.86578171 50.95569588 1.87060547 52.60473633 C1.87140106 53.55214188 1.87219666 54.49954742 1.87301636 55.47566223 C1.98987424 57.79870755 2.34223468 59.77657856 3 62 C1.68 61.67 0.36 61.34 -1 61 C-1.02312792 53.19424805 -1.04091738 45.38850405 -1.05181217 37.58272648 C-1.05704002 33.9585404 -1.06413587 30.3343777 -1.07543945 26.71020508 C-1.08627184 23.21540025 -1.09227758 19.72061796 -1.09487724 16.22579765 C-1.09763551 14.23760611 -1.10544688 12.24942369 -1.11329651 10.26124573 C-1.11337204 9.06007614 -1.11344757 7.85890656 -1.11352539 6.62133789 C-1.115746 5.55766495 -1.11796661 4.493992 -1.12025452 3.39808655 C-1 1 -1 1 0 0 Z " fill="#0A0A0A" transform="translate(25,29)"/>
<path d="M0 0 C19.8 0 39.6 0 60 0 C60 0.66 60 1.32 60 2 C40.2 2 20.4 2 0 2 C0 1.34 0 0.68 0 0 Z " fill="#333333" transform="translate(30,84)"/>
<path d="M0 0 C19.8 0 39.6 0 60 0 C60 0.66 60 1.32 60 2 C40.2 2 20.4 2 0 2 C0 1.34 0 0.68 0 0 Z " fill="#333333" transform="translate(30,77)"/>
<path d="M0 0 C1 1 1 1 1.1875 3.4375 C1 6 1 6 -1 8 C-5.55555556 7.44444444 -5.55555556 7.44444444 -7 6 C-7.04063832 4.33382885 -7.042721 2.66611905 -7 1 C-4.51588385 -0.24205807 -2.74800896 -0.14092354 0 0 Z " fill="#DADADA" transform="translate(63,61)"/>
<path d="M0 0 C2.4375 0.1875 2.4375 0.1875 3.4375 1.1875 C3.625 3.625 3.625 3.625 3.4375 6.1875 C2.7775 6.8475 2.1175 7.5075 1.4375 8.1875 C-1.1875 7.8125 -1.1875 7.8125 -3.5625 7.1875 C-4.1875 4.8125 -4.1875 4.8125 -4.5625 2.1875 C-2.5625 0.1875 -2.5625 0.1875 0 0 Z " fill="#DDDDDD" transform="translate(82.5625,43.8125)"/>
<path d="M0 0 C4.70588235 0.70588235 4.70588235 0.70588235 6 2 C6.04063832 3.66617115 6.042721 5.33388095 6 7 C3.125 7.625 3.125 7.625 0 8 C-0.66 7.34 -1.32 6.68 -2 6 C-1.44444444 1.44444444 -1.44444444 1.44444444 0 0 Z " fill="#DFDFDF" transform="translate(36,61)"/>
<path d="M0 0 C2.625 0.375 2.625 0.375 5 1 C5.625 3.375 5.625 3.375 6 6 C5.34 6.66 4.68 7.32 4 8 C1.375 7.625 1.375 7.625 -1 7 C-1.625 4.625 -1.625 4.625 -2 2 C-1.34 1.34 -0.68 0.68 0 0 Z " fill="#E3E3E3" transform="translate(80,61)"/>
<path d="M0 0 C2.625 0.375 2.625 0.375 5 1 C5.625 3.375 5.625 3.375 6 6 C5.34 6.66 4.68 7.32 4 8 C1.375 7.625 1.375 7.625 -1 7 C-1.625 4.625 -1.625 4.625 -2 2 C-1.34 1.34 -0.68 0.68 0 0 Z " fill="#E3E3E3" transform="translate(36,44)"/>
<path d="M0 0 C1 1 1 1 1.125 3.5 C1 6 1 6 0 7 C-2.33944736 6.71269945 -4.6739143 6.38063221 -7 6 C-7 4.35 -7 2.7 -7 1 C-4.51588385 -0.24205807 -2.74800896 -0.14092354 0 0 Z " fill="#E3E3E3" transform="translate(63,45)"/>
</svg>
