<?xml version="1.0" encoding="UTF-8"?>
<svg version="1.1" xmlns="http://www.w3.org/2000/svg" width="120" height="120">
<path d="M0 0 C3.55247432 0.87379409 4.94828114 2.4927342 6.9375 5.4765625 C7.63465653 8.31090382 7.66774973 10.6468448 6.9375 13.4765625 C4.5625 16.4765625 4.5625 16.4765625 1.9375 18.4765625 C1.2775 18.4765625 0.6175 18.4765625 -0.0625 18.4765625 C0.41480838 19.9355051 0.89441042 21.39369746 1.375 22.8515625 C1.64183594 23.66367188 1.90867187 24.47578125 2.18359375 25.3125 C2.88929729 27.48688049 2.88929729 27.48688049 3.9375 29.4765625 C13.1775 29.4765625 22.4175 29.4765625 31.9375 29.4765625 C34.68904167 24.03913776 34.68904167 24.03913776 35.9375 18.4765625 C35.15375 18.2084375 34.37 17.9403125 33.5625 17.6640625 C30.9375 16.4765625 30.9375 16.4765625 28.9375 13.4765625 C28.3881333 8.61074316 28.20259627 6.5789181 30.9375 2.4765625 C34.26637629 0.25731164 36.07686508 -0.28234683 40 0 C43.55247432 0.87379409 44.94828114 2.4927342 46.9375 5.4765625 C47.63486868 8.31176632 47.66247319 10.64517116 46.9375 13.4765625 C44.625 16.4765625 44.625 16.4765625 41.9375 18.4765625 C40.9475 18.4765625 39.9575 18.4765625 38.9375 18.4765625 C38.93492188 19.04503906 38.93234375 19.61351563 38.9296875 20.19921875 C38.69734818 24.83826054 38.2830197 27.5685428 34.9375 30.9140625 C30.89836462 35.0111759 31.0909005 38.87744415 30.9375 44.4765625 C26.9775 44.4765625 23.0175 44.4765625 18.9375 44.4765625 C18.9375 47.7765625 18.9375 51.0765625 18.9375 54.4765625 C18.2775 54.4765625 17.6175 54.4765625 16.9375 54.4765625 C16.9375 51.1765625 16.9375 47.8765625 16.9375 44.4765625 C12.9775 44.4765625 9.0175 44.4765625 4.9375 44.4765625 C4.89625 42.9709375 4.855 41.4653125 4.8125 39.9140625 C4.34024919 34.81947803 2.82731221 32.80387471 -0.6953125 29.28125 C-3.12207067 26.07792922 -3.04479603 22.38028861 -3.0625 18.4765625 C-3.825625 18.3940625 -4.58875 18.3115625 -5.375 18.2265625 C-8.0625 17.4765625 -8.0625 17.4765625 -9.875 15.9140625 C-11.57645393 12.42160442 -11.83590173 9.23202283 -11.0625 5.4765625 C-8.05531939 0.96579158 -5.26030565 -0.3785826 0 0 Z M-6.9375 4.6015625 C-8.59104531 7.35747134 -8.45615568 9.32731702 -8.0625 12.4765625 C-7.0625 14.4765625 -7.0625 14.4765625 -5.0625 15.4765625 C-1.91325452 15.87021818 0.05659116 16.00510781 2.8125 14.3515625 C4.46604531 11.59565366 4.33115568 9.62580798 3.9375 6.4765625 C2.9375 4.4765625 2.9375 4.4765625 0.9375 3.4765625 C-2.21174548 3.08290682 -4.18159116 2.94801719 -6.9375 4.6015625 Z M33.0625 4.6015625 C31.40895469 7.35747134 31.54384432 9.32731702 31.9375 12.4765625 C32.9375 14.4765625 32.9375 14.4765625 34.9375 15.4765625 C38.08674548 15.87021818 40.05659116 16.00510781 42.8125 14.3515625 C44.46604531 11.59565366 44.33115568 9.62580798 43.9375 6.4765625 C42.9375 4.4765625 42.9375 4.4765625 40.9375 3.4765625 C37.78825452 3.08290682 35.81840884 2.94801719 33.0625 4.6015625 Z M6.9375 35.4765625 C6.6872843 38.56022121 6.6872843 38.56022121 6.9375 41.4765625 C8.52687556 43.06593806 10.17649846 42.60637393 12.375 42.609375 C13.71691406 42.61130859 13.71691406 42.61130859 15.0859375 42.61328125 C16.49746094 42.60748047 16.49746094 42.60748047 17.9375 42.6015625 C18.87851562 42.60542969 19.81953125 42.60929687 20.7890625 42.61328125 C21.68367188 42.61199219 22.57828125 42.61070313 23.5 42.609375 C24.73943359 42.60768311 24.73943359 42.60768311 26.00390625 42.60595703 C27.94429039 42.68921057 27.94429039 42.68921057 28.9375 41.4765625 C29.20043056 37.44496059 29.23154844 35.91763516 26.9375 32.4765625 C25.04324827 32.01393719 25.04324827 32.01393719 22.875 32.078125 C22.07835937 32.07425781 21.28171875 32.07039063 20.4609375 32.06640625 C19.62820312 32.07800781 18.79546875 32.08960937 17.9375 32.1015625 C17.10476562 32.08996094 16.27203125 32.07835938 15.4140625 32.06640625 C14.21910156 32.07220703 14.21910156 32.07220703 13 32.078125 C12.26910156 32.08150879 11.53820312 32.08489258 10.78515625 32.08837891 C8.52395877 32.33829896 8.52395877 32.33829896 6.9375 35.4765625 Z " fill="#000000" transform="translate(42.0625,40.5234375)"/>
<path d="M0 0 C1.32 0 2.64 0 4 0 C4 1.32 4 2.64 4 4 C2.68 4 1.36 4 0 4 C0 2.68 0 1.36 0 0 Z " fill="#000000" transform="translate(58,96)"/>
<path d="M0 0 C1.32 0 2.64 0 4 0 C4 1.32 4 2.64 4 4 C2.68 4 1.36 4 0 4 C0 2.68 0 1.36 0 0 Z " fill="#000000" transform="translate(58,76)"/>
</svg>
