<svg viewBox="0 0 100 100" xmlns="http://www.w3.org/2000/svg" fill="currentColor">
  <!-- Left person head -->
  <circle cx="35" cy="28" r="10" fill="currentColor"/>
  <!-- Left person body -->
  <path d="M28 40 Q28 38 35 38 Q42 38 42 40 L42 58 Q42 60 40 60 L30 60 Q28 60 28 58 Z" fill="currentColor"/>
  <!-- Right person head -->
  <circle cx="65" cy="28" r="10" fill="currentColor"/>
  <!-- Right person body -->
  <path d="M58 40 Q58 38 65 38 Q72 38 72 40 L72 58 Q72 60 70 60 L60 60 Q58 60 58 58 Z" fill="currentColor"/>
  <!-- Center person head (slightly raised) -->
  <circle cx="50" cy="20" r="9" fill="currentColor"/>
  <!-- Center person body -->
  <path d="M43 32 Q43 30 50 30 Q57 30 57 32 L57 55 Q57 57 55 57 L45 57 Q43 57 43 55 Z" fill="currentColor"/>
  <!-- Connection indicator -->
  <line x1="45" y1="45" x2="35" y2="48" stroke="white" stroke-width="1" opacity="0.6"/>
  <line x1="55" y1="45" x2="65" y2="48" stroke="white" stroke-width="1" opacity="0.6"/>
</svg>