<?xml version="1.0" encoding="UTF-8"?>
<svg version="1.1" xmlns="http://www.w3.org/2000/svg" width="120" height="120">
<path d="M0 0 C24.42 0 48.84 0 74 0 C74 17.16 74 34.32 74 52 C49.58 52 25.16 52 0 52 C0 34.84 0 17.68 0 0 Z M2 2 C2 17.84 2 33.68 2 50 C3.32 50 4.64 50 6 50 C6 49.34 6 48.68 6 48 C8.87333181 47.32533928 11.74831482 46.6600766 14.625 46 C15.43324219 45.80921875 16.24148437 45.6184375 17.07421875 45.421875 C27.74308775 42.99318937 27.74308775 42.99318937 33.40625 45.51953125 C39.77162702 48.09750894 46.78277813 47.04797092 53.5 46.6875 C54.90878645 46.6241273 56.31764171 46.5622654 57.7265625 46.50195312 C61.15201127 46.34945027 64.57599663 46.18170129 68 46 C68 46.66 68 47.32 68 48 C64.535 48.495 64.535 48.495 61 49 C61 49.33 61 49.66 61 50 C64.63 50 68.26 50 72 50 C72 34.16 72 18.32 72 2 C48.9 2 25.8 2 2 2 Z M22 46 C22 46.33 22 46.66 22 47 C24.64 47 27.28 47 30 47 C30 46.67 30 46.34 30 46 C27.36 46 24.72 46 22 46 Z M29 49 C29 49.33 29 49.66 29 50 C32.3 50 35.6 50 39 50 C39 49.67 39 49.34 39 49 C35.7 49 32.4 49 29 49 Z " fill="#000000" transform="translate(23,31)"/>
<path d="M0 0 C1.11433914 0.00303635 1.11433914 0.00303635 2.25119019 0.00613403 C3.41942825 0.00350555 3.41942825 0.00350555 4.61126709 0.00082397 C7.19829505 -0.00359493 9.78525522 -0.00065643 12.37228394 0.00271606 C14.16207899 0.00204304 15.95187396 0.00107302 17.7416687 -0.00018311 C21.49778105 -0.00166013 25.25386966 0.00049462 29.00997925 0.00515747 C33.83578887 0.01085476 38.66154288 0.00757578 43.48735046 0.00158501 C47.18466616 -0.00202048 50.88196858 -0.00088208 54.57928467 0.0017128 C56.35917162 0.0023821 58.13905975 0.00155353 59.91894531 -0.00076675 C62.40212216 -0.00329309 64.88520768 0.00054702 67.36837769 0.00613403 C68.11127045 0.0041098 68.85416321 0.00208557 69.61956787 0 C74.69552132 0.02126595 74.69552132 0.02126595 75.80978394 1.13552856 C75.90934671 3.30815537 75.93778112 5.48405962 75.93917847 7.65896606 C75.94180695 8.68090057 75.94180695 8.68090057 75.94448853 9.72348022 C75.94890636 11.98585523 75.94596931 14.2481527 75.94259644 16.51052856 C75.9432695 18.07612117 75.94423954 19.64171367 75.94549561 21.20730591 C75.94697248 24.49263501 75.94481835 27.77793698 75.94015503 31.06326294 C75.93445774 35.28373372 75.9377368 39.50414093 75.94372749 43.72460938 C75.94733338 46.95869428 75.9461944 50.19276401 75.9435997 53.42684937 C75.94293051 54.98344938 75.94375859 56.54005075 75.94607925 58.09664917 C75.94860624 60.26850052 75.94476458 62.44024752 75.93917847 64.61209106 C75.93838287 65.85039673 75.93758728 67.08870239 75.93676758 68.36453247 C75.80978394 71.13552856 75.80978394 71.13552856 74.80978394 72.13552856 C72.32024697 72.23586723 69.8584344 72.27170799 67.36837769 72.2649231 C66.58955231 72.26667542 65.81072693 72.26842773 65.00830078 72.27023315 C62.42127282 72.27465206 59.83431265 72.27171355 57.24728394 72.26834106 C55.45748888 72.26901409 53.66769391 72.26998411 51.87789917 72.27124023 C48.12178683 72.27271726 44.36569822 72.27056251 40.60958862 72.26589966 C35.783779 72.26020237 30.95802499 72.26348135 26.13221741 72.26947212 C22.43490171 72.27307761 18.73759929 72.27193921 15.0402832 72.26934433 C13.26039626 72.26867503 11.48050812 72.2695036 9.70062256 72.27182388 C7.21744571 72.27435021 4.73436019 72.27051011 2.25119019 72.2649231 C1.13685104 72.26795944 1.13685104 72.26795944 0 72.27105713 C-5.07595345 72.24979118 -5.07595345 72.24979118 -6.19021606 71.13552856 C-6.28977884 68.96290176 -6.31821325 66.7869975 -6.3196106 64.61209106 C-6.32136292 63.93080139 -6.32311523 63.24951172 -6.32492065 62.5475769 C-6.32933849 60.28520189 -6.32640144 58.02290443 -6.32302856 55.76052856 C-6.32370162 54.19493596 -6.32467167 52.62934346 -6.32592773 51.06375122 C-6.32740461 47.77842212 -6.32525048 44.49312015 -6.32058716 41.20779419 C-6.31488987 36.9873234 -6.31816893 32.7669162 -6.32415962 28.54644775 C-6.32776551 25.31236284 -6.32662652 22.07829312 -6.32403183 18.84420776 C-6.32336264 17.28760775 -6.32419072 15.73100638 -6.32651138 14.17440796 C-6.32903836 12.00255661 -6.32519671 9.8308096 -6.3196106 7.65896606 C-6.318815 6.4206604 -6.31801941 5.18235474 -6.31719971 3.90652466 C-6.09983035 -0.83683927 -4.26358883 0.01786251 0 0 Z M-4.19021606 4.13552856 C-4.49769429 6.91380684 -4.49769429 6.91380684 -4.44900513 10.20584106 C-4.45530945 11.48056274 -4.46161377 12.75528442 -4.46810913 14.06863403 C-4.46452945 15.46593361 -4.46042752 16.86323193 -4.45584106 18.26052856 C-4.45718777 19.68777533 -4.45912836 21.11502165 -4.4616394 22.54226685 C-4.4645904 25.53498701 -4.46029389 28.52758788 -4.45095825 31.52029419 C-4.43956362 35.3606923 -4.44612324 39.20081088 -4.45810318 43.04119873 C-4.46532249 45.98882156 -4.46303355 48.93637788 -4.4578476 51.88400269 C-4.45651129 53.3002221 -4.45815816 54.7164475 -4.4628067 56.13265991 C-4.46787281 58.11017749 -4.45878514 60.08771618 -4.44900513 62.06521606 C-4.44741394 63.19169556 -4.44582275 64.31817505 -4.44418335 65.47879028 C-4.45988422 68.29026692 -4.45988422 68.29026692 -2.19021606 70.13552856 C0.99469063 70.44377515 0.99469063 70.44377515 4.79806519 70.39431763 C5.51690887 70.39782227 6.23575256 70.4013269 6.97637939 70.40493774 C9.35844509 70.41375821 11.74021509 70.40790492 14.12228394 70.40115356 C15.77373309 70.40250013 17.42518185 70.40444058 19.07662964 70.4069519 C22.54012826 70.40990359 26.00352383 70.40560413 29.4670105 70.39627075 C33.91273705 70.38487615 38.35822213 70.39143539 42.80393982 70.40341568 C46.21479114 70.41063311 49.62558496 70.4083469 53.03643799 70.4031601 C54.6759443 70.40182327 56.31545578 70.40347246 57.95495605 70.4081192 C60.24394619 70.41318257 62.53254201 70.40547719 64.82150269 70.39431763 C66.1256311 70.39272644 67.42975952 70.39113525 68.77340698 70.38949585 C71.92045812 70.45532674 71.92045812 70.45532674 73.80978394 68.13552856 C74.11726216 65.35725029 74.11726216 65.35725029 74.068573 62.06521606 C74.07802948 60.15313354 74.07802948 60.15313354 74.087677 58.2024231 C74.08409733 56.80512352 74.07999539 55.4078252 74.07540894 54.01052856 C74.07675565 52.5832818 74.07869623 51.15603548 74.08120728 49.72879028 C74.08415828 46.73607012 74.07986176 43.74346925 74.07052612 40.75076294 C74.05913149 36.91036483 74.06569111 33.07024625 74.07767105 29.2298584 C74.08489036 26.28223557 74.08260142 23.33467925 74.07741547 20.38705444 C74.07607916 18.97083503 74.07772603 17.55460963 74.08237457 16.13839722 C74.08744068 14.16087964 74.07835301 12.18334095 74.068573 10.20584106 C74.06698181 9.07936157 74.06539063 7.95288208 74.06375122 6.79226685 C74.07945209 3.9807902 74.07945209 3.9807902 71.80978394 2.13552856 C68.62487724 1.82728198 68.62487724 1.82728198 64.82150269 1.8767395 C64.102659 1.87323486 63.38381531 1.86973022 62.64318848 1.86611938 C60.26112278 1.85729892 57.87935278 1.86315221 55.49728394 1.86990356 C53.84583479 1.868557 52.19438602 1.86661654 50.54293823 1.86410522 C47.07943961 1.86115354 43.61604404 1.865453 40.15255737 1.87478638 C35.70683082 1.88618098 31.26134574 1.87962174 26.81562805 1.86764145 C23.40477673 1.86042402 19.99398291 1.86271023 16.58312988 1.86789703 C14.94362357 1.86923386 13.30411209 1.86758467 11.66461182 1.86293793 C9.37562168 1.85787456 7.08702586 1.86557994 4.79806519 1.8767395 C3.49393677 1.87833069 2.18980835 1.87992188 0.84616089 1.88156128 C-2.30089025 1.81573039 -2.30089025 1.81573039 -4.19021606 4.13552856 Z " fill="#000000" transform="translate(25.190216064453125,23.864471435546875)"/>
<path d="M0 0 C19.8 0 39.6 0 60 0 C60 0.66 60 1.32 60 2 C40.2 2 20.4 2 0 2 C0 1.34 0 0.68 0 0 Z " fill="#000000" transform="translate(30,47)"/>
<path d="M0 0 C19.8 0 39.6 0 60 0 C60 0.66 60 1.32 60 2 C40.2 2 20.4 2 0 2 C0 1.34 0 0.68 0 0 Z " fill="#000000" transform="translate(30,42)"/>
<path d="M0 0 C19.8 0 39.6 0 60 0 C60 0.66 60 1.32 60 2 C40.2 2 20.4 2 0 2 C0 1.34 0 0.68 0 0 Z " fill="#000000" transform="translate(30,37)"/>
<path d="M0 0 C3 0.25 3 0.25 5 2.25 C5.25 5.25 5.25 5.25 5 8.25 C3 10.25 3 10.25 0 10.5 C-3 10.25 -3 10.25 -5 8.25 C-5.25 5.25 -5.25 5.25 -5 2.25 C-3 0.25 -3 0.25 0 0 Z " fill="#000000" transform="translate(60,59.75)"/>
<path d="M0 0 C3 0.25 3 0.25 5 2.25 C5.25 5.25 5.25 5.25 5 8.25 C3 10.25 3 10.25 0 10.5 C-3 10.25 -3 10.25 -5 8.25 C-5.25 5.25 -5.25 5.25 -5 2.25 C-3 0.25 -3 0.25 0 0 Z " fill="#000000" transform="translate(40,54.75)"/>
<path d="M0 0 C3 0.25 3 0.25 5 2.25 C5.25 5.25 5.25 5.25 5 8.25 C3 10.25 3 10.25 0 10.5 C-3 10.25 -3 10.25 -5 8.25 C-5.25 5.25 -5.25 5.25 -5 2.25 C-3 0.25 -3 0.25 0 0 Z " fill="#000000" transform="translate(80,52.75)"/>
</svg>
