<?xml version="1.0" standalone="no"?>
<!DOCTYPE svg PUBLIC "-//W3C//DTD SVG 20010904//EN"
 "http://www.w3.org/TR/2001/REC-SVG-20010904/DTD/svg10.dtd">
<svg version="1.0" xmlns="http://www.w3.org/2000/svg"
 width="120.000000pt" height="120.000000pt" viewBox="0 0 120.000000 120.000000"
 preserveAspectRatio="xMidYMid meet">

<g transform="translate(0.000000,120.000000) scale(0.100000,-0.100000)"
fill="#000000" stroke="none">
<path d="M240 600 l0 -260 140 0 140 0 -6 -24 c-8 -33 19 -81 56 -96 24 -10
36 -10 60 0 37 15 64 63 56 96 l-6 24 140 0 140 0 0 260 0 260 -360 0 -360 0
0 -260z m700 0 l0 -240 -134 0 c-99 0 -141 4 -162 15 -16 8 -36 15 -44 15 -8
0 -28 -7 -44 -15 -21 -11 -63 -15 -162 -15 l-134 0 0 240 0 240 340 0 340 0 0
-240z m-327 -237 c-7 -2 -19 -2 -25 0 -7 3 -2 5 12 5 14 0 19 -2 13 -5z m51
-39 c11 -29 6 -54 -14 -74 -43 -43 -120 -11 -120 48 0 39 5 42 71 42 43 0 58
-4 63 -16z"/>
<path d="M300 800 c0 -6 40 -10 100 -10 60 0 100 4 100 10 0 6 -40 10 -100 10
-60 0 -100 -4 -100 -10z"/>
<path d="M300 750 c0 -6 107 -10 300 -10 193 0 300 4 300 10 0 6 -107 10 -300
10 -193 0 -300 -4 -300 -10z"/>
<path d="M300 700 c0 -6 98 -10 275 -10 177 0 275 4 275 10 0 6 -98 10 -275
10 -177 0 -275 -4 -275 -10z"/>
<path d="M300 650 c0 -6 90 -10 250 -10 160 0 250 4 250 10 0 6 -90 10 -250
10 -160 0 -250 -4 -250 -10z"/>
<path d="M300 600 c0 -6 82 -10 225 -10 143 0 225 4 225 10 0 6 -82 10 -225
10 -143 0 -225 -4 -225 -10z"/>
<path d="M300 550 c0 -6 73 -10 200 -10 127 0 200 4 200 10 0 6 -73 10 -200
10 -127 0 -200 -4 -200 -10z"/>
<path d="M300 500 c0 -6 65 -10 175 -10 110 0 175 4 175 10 0 6 -65 10 -175
10 -110 0 -175 -4 -175 -10z"/>
</g>
</svg>
